<?xml version="1.0" encoding="UTF-8"?>
<svg xmlns="http://www.w3.org/2000/svg" version="1.1" viewBox="0 0 1920 1080">
  <defs>
    <style>
      .cls-1 {
        fill: #fff;
      }

      .cls-2 {
        fill: none;
      }

      .cls-3 {
        fill: #da88a1;
      }
    </style>
  </defs>
  <!-- Generator: Adobe Illustrator 28.7.2, SVG Export Plug-In . SVG Version: 1.2.0 Build 154)  -->
  <g>
    <g id="Laag_1">
      <rect class="cls-2" x="233" y="28" width="1024" height="1024"/>
      <g>
        <path class="cls-3" d="M824.2,644.03c-.66-.69-1.33-1.36-2.01-2.03h.01c-53.2-55.86-161.7-53.86-161.7-53.86-36.29,0-84.29-27.58-125.26-71.97-40.86-44.27-66.24-95.43-66.24-133.53,0-80.25,58.67-138.5,139.5-138.5,87.07,0,141.57,93.11,142.44,94.61l.37.66.43.66c.84,1.27,1.69,2.57,2.55,3.91,7.92,12.33,13.12,13.6,20.71,29.02,7.82-13.75,16.34-17.75,31-24-10.13-19.18-12.5-27.24-15.67-32.13-.27-.42-.49-.77-.67-1.04-6.27-10.77-70.79-116.69-181.16-116.69-50.91,0-97.66,18.55-131.63,52.23-34.1,33.79-52.87,80.41-52.87,131.27s29.22,111.02,78.17,164.05c23,24.92,48.75,45.96,74.48,60.85,3.19,1.85,6.37,3.6,9.53,5.24-75.56,28.87-129.18,100.4-129.18,183.86,0,108.9,91.29,197.5,203.5,197.5s203.5-88.6,203.5-197.5c0-66.81-6.77-118.32-39.8-152.61ZM660.5,949.14c-87.4,0-158.5-68.41-158.5-152.5s71.1-152.5,158.5-152.5c70.08,0,110.57,9.59,131.3,31.11,19.32,20.06,27.2,55.23,27.2,121.39,0,84.09-71.1,152.5-158.5,152.5Z"/>
        <path class="cls-3" d="M1034.8,644.03c.66-.69,1.33-1.36,2.01-2.03h-.01c53.2-55.86,161.7-53.86,161.7-53.86,36.29,0,84.29-27.58,125.26-71.97,40.86-44.27,66.24-95.43,66.24-133.53,0-80.25-58.67-138.5-139.5-138.5-87.07,0-141.57,93.11-142.44,94.61l-.37.66-.43.66c-.84,1.27-1.69,2.57-2.55,3.91-7.92,12.33-13.12,13.6-20.71,29.02-7.82-13.75-16.34-17.75-31-24,10.13-19.18,12.5-27.24,15.67-32.13.27-.42.49-.77.67-1.04,6.27-10.77,70.79-116.69,181.16-116.69,50.91,0,97.66,18.55,131.63,52.23,34.1,33.79,52.87,80.41,52.87,131.27s-29.22,111.02-78.17,164.05c-23,24.92-48.75,45.96-74.48,60.85-3.19,1.85-6.37,3.6-9.53,5.24,75.56,28.87,129.18,100.4,129.18,183.86,0,108.9-91.29,197.5-203.5,197.5s-203.5-88.6-203.5-197.5c0-66.81,6.77-118.32,39.8-152.61ZM1198.5,949.14c87.4,0,158.5-68.41,158.5-152.5s-71.1-152.5-158.5-152.5c-70.08,0-110.57,9.59-131.3,31.11-19.32,20.06-27.2,55.23-27.2,121.39,0,84.09,71.1,152.5,158.5,152.5Z"/>
      </g>
      <g>
        <path class="cls-3" d="M1103.3,342.84c-10.1-11.19-22.33-20.44-36.04-27.11-15.48-7.51-32.84-11.73-51.17-11.73s-34.66,3.97-49.78,11.08c-13.99,6.57-26.49,15.81-36.81,27.09-10.32-11.28-22.82-20.52-36.81-27.09-15.12-7.11-31.99-11.08-49.78-11.08s-35.69,4.22-51.17,11.73c-13.71,6.67-25.94,15.92-36.04,27.11-18.82,20.84-30.29,48.43-30.29,78.66,0,34.35,14.81,65.3,38.39,86.79l165.61,167.43.09.09.09-.09,165.61-167.43c23.58-21.49,38.39-52.44,38.39-86.79,0-30.23-11.47-57.82-30.29-78.66ZM1071.09,468.68l-.02.02c-2.23,2.61-4.65,5.05-7.23,7.31l-61.51,62.18-72.83,73.63-72.83-73.63-61.51-62.18c-2.58-2.26-5-4.7-7.23-7.31l-.02-.02c-10.91-12.69-17.5-29.18-17.5-47.18,0-12.99,3.43-25.2,9.45-35.75,7.82-13.75,20.01-24.71,34.67-30.96,8.72-3.73,18.32-5.79,28.38-5.79,18.73,0,35.83,7.14,48.7,18.84,1.73,1.57,3.38,3.22,4.95,4.95l23.54,23.54,9.31,9.31.09.09.09-.09,9.31-9.31,23.54-23.54c1.57-1.73,3.22-3.38,4.95-4.95,12.87-11.7,29.97-18.84,48.7-18.84,10.06,0,19.66,2.06,28.38,5.79,14.66,6.25,26.85,17.21,34.67,30.96,6.02,10.55,9.45,22.76,9.45,35.75,0,18-6.59,34.49-17.5,47.18Z"/>
        <polygon class="cls-3" points="929.59 405.64 929.59 405.82 929.5 405.73 929.59 405.64"/>
        <polygon class="cls-3" points="929.59 675.72 929.59 675.9 929.5 675.81 929.59 675.72"/>
        <path class="cls-3" d="M795.16,476.01c-2.58-2.26-5-4.7-7.23-7.31l7.23,7.31Z"/>
      </g>
      <path class="cls-3" d="M1111.47,143.71c-.86,23.13-19.53,42.07-42.64,43.23-12.1.61-23.23-3.58-31.66-10.81-12.52,7.86-27.08,20.01-41.93,36.82-20.29,22.99-35.16,48.55-41.23,69.87-3.22,11.32-13.47,19.18-25.23,19.18h-1.06c-11.77,0-22.01-7.87-25.23-19.18-6.07-21.32-20.94-46.88-41.23-69.87-14.85-16.81-29.41-28.96-41.93-36.82-8.42,7.24-19.55,11.42-31.66,10.81-23.11-1.17-41.79-20.1-42.64-43.23-.95-25.63,19.55-46.71,44.97-46.71,21.68,0,39.78,15.33,44.05,35.74,20.11,10.78,41.19,28.06,60.94,50.43,13.25,15.01,24.46,30.74,33.26,46.41,8.8-15.67,20.01-31.4,33.26-46.41,19.75-22.37,40.83-39.65,60.94-50.43,4.27-20.41,22.37-35.74,44.05-35.74,25.42,0,45.92,21.08,44.97,46.71Z"/>
      <path class="cls-2" d="M912.18,406.31"/>
      <path class="cls-1" d="M895.15,372.79l-4.95-4.95c1.73,1.57,3.38,3.22,4.95,4.95Z"/>
      <polyline class="cls-2" points="928.18 288 928.18 315.18 928.18 379.27"/>
      <polyline class="cls-2" points="928.18 405.64 928.18 405.82 928.18 592.99"/>
      <line class="cls-2" x1="928.18" y1="696" x2="928.18" y2="675.9"/>
      <g>
        <polygon class="cls-1" points="928.09 405.73 928 405.82 928 405.64 928.09 405.73"/>
        <polygon class="cls-1" points="928.09 675.81 928 675.9 928 675.72 928.09 675.81"/>
        <path class="cls-1" d="M1069.66,468.7c-2.23,2.61-4.65,5.05-7.23,7.31l7.23-7.31Z"/>
      </g>
      <rect class="cls-3" x="907.5" y="622" width="44" height="376" rx="22" ry="22"/>
      <path class="cls-3" d="M661.13,803.33c-.79,12.72-10.33,23.08-23.08,23.08-14.21,0-22.69-13.13-23.08-23.08,0,0-5.2-76.4,80.95-75.75,12.75.1,23.08,10.33,23.08,23.08s-10.33,23.08-23.08,23.08c0,0-32.84-1.95-34.79,29.58Z"/>
      <path class="cls-3" d="M1201.16,799.54c2.28,13.54,13.68,23.55,27.33,22.11,15.22-1.61,22.81-16.62,22.11-27.33,0,0-3.06-82.4-95.25-71.97-13.64,1.54-23.55,13.68-22.11,27.33,1.44,13.65,13.68,23.55,27.33,22.11,0,0,34.94-5.8,40.6,27.75Z"/>
    </g>
  </g>
</svg>