<?xml version="1.0" encoding="UTF-8"?>
<svg id="Laag_1" xmlns="http://www.w3.org/2000/svg" version="1.1" viewBox="0 0 24 24">
  <!-- Generator: Adobe Illustrator 29.1.0, SVG Export Plug-In . SVG Version: 2.1.0 Build 142)  -->
  <path d="M12,22.71c-.44,0-.8-.36-.8-.8v-7.35l-3.24-3.28c-.61-.56-.97-1.37-.97-2.22,0-.65.21-1.29.61-1.81-.25-.4-1.38-2.01-3.02-2.01s-2.94,1.23-2.94,2.92c0,.81.56,1.92,1.46,2.89.88.96,1.94,1.57,2.69,1.57h0c.48,0,2.74.07,3.95,1.34.88.91,1.05,2.17,1.05,3.78,0,2.68-2.25,4.87-5.01,4.87S.76,20.44.76,17.76c0-1.82,1.02-3.45,2.65-4.29-.53-.34-1.05-.79-1.52-1.3-1.18-1.28-1.89-2.78-1.89-4s.47-2.41,1.31-3.25c.84-.84,2-1.29,3.26-1.29,2.38,0,3.87,1.96,4.32,2.64.37-.15.73-.21,1.11-.21.45,0,.88.1,1.28.28.27.13.51.29.73.48.22-.19.46-.36.73-.48.4-.19.83-.28,1.28-.28.38,0,.76.07,1.11.21.46-.7,1.96-2.64,4.32-2.64,1.26,0,2.41.46,3.25,1.29.85.84,1.31,1.99,1.31,3.25s-.71,2.72-1.89,4c-.47.51-.99.96-1.52,1.3,1.62.84,2.65,2.47,2.65,4.29,0,2.68-2.25,4.87-5.01,4.87s-5.01-2.18-5.01-4.87c0-1.62.17-2.87,1-3.74,1.26-1.32,3.53-1.38,3.97-1.38h0c.78,0,1.84-.62,2.72-1.57.9-.97,1.46-2.08,1.46-2.89,0-1.69-1.24-2.92-2.94-2.92s-2.84,1.72-3.02,2.01c.39.52.61,1.16.61,1.81,0,.84-.36,1.66-.98,2.23l-3.23,3.27v7.35c0,.44-.36.8-.8.8ZM18.23,14.52c-1.52,0-2.42.2-2.83.63-.38.4-.55,1.18-.55,2.61,0,1.79,1.52,3.24,3.38,3.24s3.38-1.45,3.38-3.24-1.52-3.24-3.38-3.24ZM5.77,14.52c-1.86,0-3.38,1.45-3.38,3.24s1.52,3.24,3.38,3.24,3.38-1.45,3.38-3.24c0-1.43-.16-2.21-.55-2.61-.41-.43-1.31-.63-2.83-.63ZM9.99,7.68c-.19,0-.37.04-.54.11-.28.12-.51.33-.66.59-.12.21-.18.44-.18.68,0,.33.12.65.33.9l3.06,3.09,2.9-2.94c.06-.06.11-.1.15-.15.22-.25.34-.57.34-.9,0-.24-.06-.48-.18-.68-.15-.26-.39-.47-.66-.59-.17-.07-.35-.11-.54-.11-.34,0-.68.13-.93.36-.03.03-1.07,1.08-1.07,1.08,0,0-1.05-1.05-1.08-1.08-.26-.23-.59-.36-.93-.36Z"/>
  <path d="M11.96,5.62c-.4,0-.76-.27-.87-.66-.13-.46-.46-1.01-.89-1.5-.29-.33-.55-.55-.75-.69-.21.12-.44.19-.68.19h0c-.75-.04-1.31-.6-1.33-1.28-.01-.37.12-.71.37-.98s.59-.41.96-.41c.58,0,1.1.38,1.27.93.47.27.94.67,1.38,1.17.2.23.39.47.55.71.16-.24.35-.48.55-.71.44-.5.91-.9,1.38-1.17.18-.54.69-.93,1.27-.93.37,0,.71.14.96.41.25.26.39.61.37.98-.02.68-.58,1.25-1.26,1.28h0c-.29,0-.54-.07-.74-.19-.2.14-.46.36-.75.69-.44.49-.76,1.04-.89,1.5-.11.39-.47.66-.87.66h-.02Z"/>
  <path d="M5.25,18.74c-.49,0-.81-.42-.83-.82,0-.03-.05-.85.51-1.45.38-.4.93-.61,1.63-.61.48,0,.85.37.85.83s-.37.83-.83.83h0c-.24,0-.49.07-.51.41-.03.46-.38.81-.83.81Z"/>
  <path d="M18.86,18.63c-.43,0-.79-.32-.86-.76-.02-.1-.07-.41-.52-.41,0,0-.11,0-.12,0-.53,0-.9-.33-.94-.77-.05-.47.3-.9.77-.95.14-.02.27-.02.39-.02,1.63,0,2.11,1.29,2.14,1.97.03.4-.26.88-.77.94h-.09Z"/>
</svg>