<?xml version="1.0" encoding="UTF-8"?>
<svg id="Laag_1" xmlns="http://www.w3.org/2000/svg" version="1.1" viewBox="0 0 1011 1011">
  <!-- Generator: Adobe Illustrator 29.1.0, SVG Export Plug-In . SVG Version: 2.1.0 Build 142)  -->
  <defs>
    <style>
      .st0 {
        fill: #9333ea;
      }
    </style>
  </defs>
  <path class="st0" d="M849.08,573.12c3.16-1.64,6.34-3.39,9.53-5.24,25.73-14.89,51.48-35.93,74.48-60.85,48.95-53.03,78.17-114.36,78.17-164.05s-18.77-97.48-52.87-131.27c-33.97-33.68-80.72-52.23-131.63-52.23-110.37,0-174.89,105.92-181.16,116.69-.13.19-.29.44-.46.71-.54-.27-1.08-.55-1.62-.81-15.48-7.51-32.84-11.73-51.17-11.73s-34.66,3.97-49.78,11.08c-13.99,6.57-26.49,15.81-36.81,27.09-10.32-11.28-22.82-20.52-36.81-27.09-15.12-7.11-31.99-11.08-49.78-11.08s-35.69,4.22-51.17,11.73c-.54.26-1.08.54-1.62.81-.17-.27-.33-.52-.46-.71-6.27-10.77-70.79-116.69-181.16-116.69-50.91,0-97.66,18.55-131.63,52.23C19.03,245.5.26,292.12.26,342.98s29.22,111.02,78.17,164.05c23,24.92,48.75,45.96,74.48,60.85,3.19,1.85,6.37,3.6,9.53,5.24-75.56,28.87-129.18,100.4-129.18,183.86,0,108.9,91.29,197.5,203.5,197.5s203.5-88.6,203.5-197.5c0-66.81-6.77-118.32-39.8-152.61-.66-.69-1.33-1.36-2.01-2.03h.01c-53.2-55.86-161.7-53.86-161.7-53.86-36.29,0-84.29-27.58-125.26-71.97-40.86-44.27-66.24-95.43-66.24-133.53,0-80.25,58.67-138.5,139.5-138.5,87.07,0,141.57,93.11,142.44,94.61l.37.66.43.66c.84,1.27,1.69,2.57,2.55,3.91.06.09.11.17.17.26-18.08,20.67-29.05,47.7-29.05,77.26,0,34.35,14.81,65.3,38.39,86.79l143.94,145.52v311.85c0,12.15,9.85,22,22,22s22-9.85,22-22v-312.34l143.46-145.04c23.58-21.49,38.39-52.44,38.39-86.79,0-29.56-10.97-56.59-29.05-77.26.06-.09.11-.17.17-.26.86-1.34,1.71-2.64,2.55-3.91l.43-.66.37-.66c.87-1.5,55.37-94.61,142.44-94.61,80.83,0,139.5,58.25,139.5,138.5,0,38.1-25.38,89.26-66.24,133.53-40.97,44.39-88.97,71.97-125.26,71.97,0,0-108.5-2-161.7,53.86h.01c-.68.67-1.35,1.34-2.01,2.03-33.03,34.29-39.8,85.8-39.8,152.61,0,108.9,91.29,197.5,203.5,197.5s203.5-88.6,203.5-197.5c0-83.46-53.62-154.99-129.18-183.86ZM368.06,635.59c19.32,20.06,27.2,55.23,27.2,121.39,0,84.09-71.1,152.5-158.5,152.5s-158.5-68.41-158.5-152.5,71.1-152.5,158.5-152.5c70.08,0,110.57,9.59,131.3,31.11ZM647.35,429.02l-.02.02c-2.23,2.61-4.65,5.05-7.23,7.31l-61.51,62.18-72.68,73.47c-.1,0-.2,0-.3,0l-72.68-73.48-61.51-62.18-7.23-7.31-.02-.02c-10.91-12.69-17.5-29.18-17.5-47.18,0-12.99,3.43-25.2,9.45-35.75,7.82-13.75,20.01-24.71,34.67-30.96,8.72-3.73,18.32-5.79,28.38-5.79,18.73,0,35.83,7.14,48.7,18.84,1.73,1.57,3.38,3.22,4.95,4.95l23.54,23.54,9.31,9.31.09.09.09.09v-.18l9.31-9.31,23.54-23.54c1.57-1.73,3.22-3.38,4.95-4.95,12.87-11.7,29.97-18.84,48.7-18.84,10.06,0,19.66,2.06,28.38,5.79,14.66,6.25,26.85,17.21,34.67,30.96,6.02,10.55,9.45,22.76,9.45,35.75,0,18-6.59,34.49-17.5,47.18ZM774.76,909.48c-87.4,0-158.5-68.41-158.5-152.5,0-66.16,7.88-101.33,27.2-121.39,20.73-21.52,61.22-31.11,131.3-31.11,87.4,0,158.5,68.41,158.5,152.5s-71.1,152.5-158.5,152.5Z"/>
  <path class="st0" d="M363.93,147.28c12.1.61,23.23-3.58,31.66-10.81,12.52,7.86,27.08,20.01,41.93,36.82,20.29,22.99,35.16,48.55,41.23,69.87,3.22,11.32,13.47,19.18,25.23,19.18h1.06c11.77,0,22.01-7.87,25.23-19.18,6.07-21.32,20.94-46.88,41.23-69.87,14.85-16.81,29.41-28.96,41.93-36.82,8.42,7.24,19.55,11.42,31.66,10.81,23.11-1.17,41.79-20.1,42.64-43.23.95-25.63-19.55-46.71-44.97-46.71-21.68,0-39.78,15.33-44.05,35.74-20.11,10.78-41.19,28.06-60.94,50.43-13.25,15.01-24.46,30.74-33.26,46.41-8.8-15.67-20.01-31.4-33.26-46.41-19.75-22.37-40.83-39.65-60.94-50.43-4.27-20.41-22.37-35.74-44.05-35.74-25.42,0-45.92,21.08-44.97,46.71.86,23.13,19.53,42.07,42.64,43.23Z"/>
</svg>